<svg width="16" height="16" viewBox="0 0 16 16" fill="none" xmlns="http://www.w3.org/2000/svg">
<path d="M8 15C4.13401 15 1 11.866 1 8C1 4.13401 4.13401 1 8 1C11.866 1 15 4.13401 15 8C15 11.866 11.866 15 8 15ZM8 16C12.4183 16 16 12.4183 16 8C16 3.58172 12.4183 0 8 0C3.58172 0 0 3.58172 0 8C0 12.4183 3.58172 16 8 16Z" fill="black"/>
<path d="M8 6C8.22091 6 8.4 6.17909 8.4 6.4V7.6H9.6C9.82091 7.6 10 7.77909 10 8C10 8.22091 9.82091 8.4 9.6 8.4H8.4V9.6C8.4 9.82091 8.22091 10 8 10C7.77909 10 7.6 9.82091 7.6 9.6V8.4H6.4C6.17909 8.4 6 8.22091 6 8C6 7.77909 6.17909 7.6 6.4 7.6H7.6V6.4C7.6 6.17909 7.77909 6 8 6Z" fill="black"/>
</svg>
